<?xml version="1.0" encoding="UTF-8"?>
<svg xmlns="http://www.w3.org/2000/svg" width="249" height="35.14" viewBox="0 0 249 35.14">
  <defs>
    <filter id="brand-glow" x="-30%" y="-100%" width="160%" height="300%">
      <feGaussianBlur stdDeviation="1.2" result="blur"/>
      <feMerge>
        <feMergeNode in="blur"/>
        <feMergeNode in="SourceGraphic"/>
      </feMerge>
    </filter>
  </defs>
  <g fill="#8ff8df" filter="url(#brand-glow)" transform="translate(2 31.75) scale(1.11058138 1)">
    <path d="M15.02490234375 0.380859375C22.546875 0.380859375 28.259765625 -4.93212890625 28.259765625 -14.16796875C28.259765625 -23.44189453125 22.546875 -28.7548828125 15.02490234375 -28.7548828125C7.5029296875 -28.7548828125 1.7900390625 -23.44189453125 1.7900390625 -14.16796875C1.7900390625 -4.951171875 7.5029296875 0.380859375 15.02490234375 0.380859375ZM15.02490234375 -4.77978515625C10.6259765625 -4.77978515625 7.693359375 -8.09326171875 7.693359375 -14.16796875C7.693359375 -20.26171875 10.6259765625 -23.59423828125 15.02490234375 -23.59423828125C19.423828125 -23.59423828125 22.3564453125 -20.28076171875 22.3564453125 -14.16796875C22.3564453125 -8.09326171875 19.423828125 -4.77978515625 15.02490234375 -4.77978515625Z"/>
    <path d="M40.42060546875 0H46.2287109375V-9.27392578125H51.35126953125C57.8830078125 -9.27392578125 61.63447265625 -13.177734375 61.63447265625 -18.79541015625C61.63447265625 -24.375 57.94013671875 -28.3740234375 51.4845703125 -28.3740234375H40.42060546875ZM46.2287109375 -13.95849609375V-23.5751953125H50.39912109375C53.96015625 -23.5751953125 55.6359375 -21.65185546875 55.6359375 -18.79541015625C55.6359375 -15.93896484375 53.96015625 -13.95849609375 50.4181640625 -13.95849609375Z"/>
    <path d="M73.490625 0H92.51455078125V-4.81787109375H79.29873046875V-11.958984375H91.48623046875V-16.70068359375H79.29873046875V-23.55615234375H92.47646484375V-28.3740234375H73.490625Z"/>
    <path d="M104.980078125 0H110.78818359375V-10.130859375H115.35849609375L120.76669921875 0H127.20322265625L121.1666015625 -11.06396484375C124.40390625 -12.4541015625 126.1939453125 -15.25341796875 126.1939453125 -19.13818359375C126.1939453125 -24.7177734375 122.499609375 -28.3740234375 116.04404296875 -28.3740234375H104.980078125ZM110.78818359375 -14.83447265625V-23.5751953125H114.95859375C118.51962890625 -23.5751953125 120.19541015625 -21.99462890625 120.19541015625 -19.13818359375C120.19541015625 -16.30078125 118.51962890625 -14.83447265625 114.97763671875 -14.83447265625Z"/>
    <path d="M144.2009765625 -28.3740234375H138.39287109375V0H144.2009765625Z"/>
    <path d="M165.4453125 0H173.04345703125L182.75537109375 -28.3740234375H176.337890625L171.9580078125 -14.68212890625C171.10107421875 -11.82568359375 170.22509765625 -8.55029296875 169.27294921875 -4.6845703125C168.3017578125 -8.51220703125 167.3876953125 -11.82568359375 166.49267578125 -14.68212890625L161.96044921875 -28.3740234375H155.5048828125Z"/>
    <path d="M192.42158203125 0H198.8390625L200.95283203125 -6.5888671875H211.0265625L213.21650390625 0H219.6720703125L209.731640625 -28.3740234375H202.114453125ZM202.40009765625 -11.14013671875 203.2189453125 -13.69189453125C204.07587890625 -16.54833984375 204.91376953125 -19.9189453125 205.86591796875 -23.82275390625C206.85615234375 -19.95703125 207.751171875 -16.60546875 208.665234375 -13.69189453125L209.52216796875 -11.14013671875Z"/>
  </g>
</svg>
